<svg xmlns="http://www.w3.org/2000/svg" viewBox="0 0 293.21 289.24"><defs><style>.cls-1{fill:#fff;}.cls-2{fill:#f26531;}.cls-3{fill:#82cec2;}</style></defs><title>Asset 2</title><g id="Layer_2" data-name="Layer 2"><g id="Layer_1-2" data-name="Layer 1"><circle class="cls-1" cx="73.73" cy="213.85" r="8.1"/><path class="cls-2" d="M85.09,0,253.2,216.52s-9.35,38.15-56.47,53.6c-46.81,15.36-118.08,12.22-165.5-41.4C-10.14,181.93-6,108.15,18.24,57.62,37.6,17.31,85.09,0,85.09,0Z"/><path class="cls-1" d="M156.36,139.87c9.83-5.54,3.54,99.67-4.5,113.62s-49.46,2.31-62.19-5-28.26-20.39-20.21-34.34S137.06,150.75,156.36,139.87Z"/><path class="cls-3" d="M289.75,195.73c-7.18,30.41-25,56.11-49.59,72.41-29.39,19.52-67.95,26-103.55,17.3-19.66-4.82-19.78-10.89-23.11-22.23-7-23.75-.32-40.59,12.55-61.1,15.84-25.25,49-34.75,69.26-45.84,21.45-11.74,32.75-20.45,33.92-35.16,4.94-61.71-67.35-86.39-30.39-76.91C266.09,61.45,305.52,129,289.75,195.73Z"/><path class="cls-1" d="M113.09,259.22s30.08,12.42,74-10.84c16.51-8.73,38.2-27.61,52.34-54.68,7.67-14.67,18.66-34.08,19-58.08.13-9.69,5.38.53,4,20.44-1.18,17.17-5.6,31.54-18.22,54.68-10.41,19.08-19.7,27.75-42.41,45.18-19.12,14.67-44.19,25.19-68.91,22.23-11.11-1.34-15.8-4.49-17.33-8C112.42,263.05,113.09,259.22,113.09,259.22Z"/><circle class="cls-1" cx="187.5" cy="203.72" r="7.35"/><polygon class="cls-1" points="255.36 171.79 218.29 171.79 220.42 163.9 258.28 164.09 255.36 171.79"/><polyline class="cls-1" points="183.63 205.51 183.63 266.16 191.2 258.16 192.03 203.48 183.63 203.34"/><polygon class="cls-1" points="227.28 219.24 261.43 219.23 260.43 212.12 230.15 212.06 227.28 219.24"/><polyline class="cls-1" points="164.25 243.1 164.25 268.38 171.01 268.38 171.77 242.26 164.25 242.19"/><circle class="cls-1" cx="167.7" cy="240.52" r="6.57"/><polygon class="cls-1" points="247.09 192.92 277.57 192.99 276.74 185.88 249 185.84 247.09 192.92"/><circle class="cls-1" cx="222.9" cy="167.68" r="7.35"/><circle class="cls-1" cx="261.98" cy="215.59" r="7.35"/><path class="cls-1" d="M286.78,190.56a7.35,7.35,0,1,1-7.35-7.35A7.35,7.35,0,0,1,286.78,190.56Z"/><path class="cls-1" d="M153,115.44c5.27,9.78-91.39-18.27-105-26.25s-8.15-27.3-.7-40S67.87,21.09,81.45,29.07,142.62,96.25,153,115.44Z"/><path class="cls-1" d="M150.15,127.67c10.95,3.13-80.52,52.22-96.29,56.26S28.15,170.5,24.5,156.25s-5.13-34.46,10.64-38.51S128.67,121.53,150.15,127.67Z"/></g></g></svg>